<!DOCTYPE svg PUBLIC "-//W3C//DTD SVG 1.1//EN" "http://www.w3.org/Graphics/SVG/1.1/DTD/svg11.dtd">
<!-- Uploaded to: SVG Repo, www.svgrepo.com, Transformed by: SVG Repo Mixer Tools -->
<svg fill="#dddddd" height="800px" width="800px" version="1.1" id="Layer_1" xmlns="http://www.w3.org/2000/svg" xmlns:xlink="http://www.w3.org/1999/xlink" viewBox="0 0 447.00 447.00" xml:space="preserve" stroke="#dddddd" stroke-width="0.00447001">
<g id="SVGRepo_bgCarrier" stroke-width="0"/>
<g id="SVGRepo_tracerCarrier" stroke-linecap="round" stroke-linejoin="round"/>
<g id="SVGRepo_iconCarrier"> <g> <g> <path d="M414.066,116.43H403V94.5c0-18.158-14.772-32.93-32.93-32.93H32.93C14.772,61.571,0,76.342,0,94.5v203.14 c0,18.158,14.772,32.93,32.93,32.93H44v21.926c0,18.16,14.774,32.934,32.934,32.934h337.133c18.16,0,32.934-14.774,32.934-32.934 V149.365C447,131.204,432.226,116.43,414.066,116.43z M44,149.365V315.57H32.93c-9.887,0-17.93-8.043-17.93-17.93V94.5 c0-9.887,8.043-17.93,17.93-17.93h337.14c9.887,0,17.93,8.043,17.93,17.93v21.93H76.934C58.774,116.43,44,131.204,44,149.365z M432,352.496c0,9.889-8.045,17.934-17.934,17.934H76.934c-9.889,0-17.934-8.045-17.934-17.934V221.43h373V352.496z M432,206.43 H59v-37h373V206.43z M432,154.43H59v-5.066c0-9.889,8.045-17.934,17.934-17.934h337.133c9.888,0,17.933,8.045,17.933,17.934 V154.43z"/> </g> </g> <g> <g> <path d="M359.528,250.43c-6.42,0-12.514,1.409-18.005,3.917c-5.625-2.557-11.764-3.917-17.995-3.917 c-23.986,0-43.5,19.514-43.5,43.5c0,23.986,19.514,43.5,43.5,43.5c6.232,0,12.371-1.359,17.995-3.917 c5.491,2.508,11.584,3.917,18.005,3.917c23.986,0,43.5-19.514,43.5-43.5C403.028,269.944,383.514,250.43,359.528,250.43z M326.555,322.255c-1.003,0.107-2.012,0.175-3.027,0.175c-15.715,0-28.5-12.785-28.5-28.5c0-15.715,12.785-28.5,28.5-28.5 c1.015,0,2.024,0.068,3.027,0.175c-6.553,7.617-10.527,17.513-10.527,28.325S320.002,314.638,326.555,322.255z M359.528,322.43 c-15.715,0-28.5-12.785-28.5-28.5c0-15.715,12.785-28.5,28.5-28.5c15.715,0,28.5,12.785,28.5,28.5 C388.028,309.645,375.243,322.43,359.528,322.43z"/> </g> </g> <g> <g> <path d="M199.5,272.43h-102c-4.142,0-7.5,3.358-7.5,7.5c0,4.142,3.358,7.5,7.5,7.5h102c4.142,0,7.5-3.358,7.5-7.5 C207,275.788,203.642,272.43,199.5,272.43z"/> </g> </g> <g> <g> <path d="M247.5,310.43h-150c-4.142,0-7.5,3.358-7.5,7.5c0,4.142,3.358,7.5,7.5,7.5h150c4.142,0,7.5-3.358,7.5-7.5 C255,313.788,251.642,310.43,247.5,310.43z"/> </g> </g> </g>
</svg>